<svg width="46" height="36" viewBox="0 0 46 36" fill="none" xmlns="http://www.w3.org/2000/svg">
<path d="M18.9852 16.5144L18.9853 16.5145C19.669 17.1981 19.669 18.3014 18.9853 18.9851L3.98762 33.9851C3.30402 34.6687 2.19613 34.6687 1.51263 33.9851C0.829126 33.3015 0.829126 32.1981 1.51263 31.5144L14.7414 18.28L15.2714 17.7497L14.7413 17.2195L1.51263 3.98753C1.51263 3.98752 1.51263 3.98751 1.51263 3.98751C0.829226 3.3039 0.829124 2.19604 1.51232 1.51234C1.51242 1.51231 1.51243 1.51227 1.51243 1.51224C1.51253 1.51219 1.51253 1.51214 1.51263 1.51208C2.19613 0.82927 3.30413 0.82927 3.98783 1.5123C3.98783 1.51233 3.98783 1.51235 3.98793 1.51238L18.9852 16.5144ZM42.75 30.9998C43.7186 30.9998 44.5 31.7812 44.5 32.7498C44.5 33.7184 43.7186 34.4998 42.75 34.4998H20.25C19.2814 34.4998 18.5 33.7184 18.5 32.7498C18.5 31.7812 19.2814 30.9998 20.25 30.9998H42.75Z" stroke="#3294F8" stroke-width="1.5"/>
</svg>
