<svg width="250" height="250" viewBox="0 0 250 250" fill="none" xmlns="http://www.w3.org/2000/svg">
<circle cx="125" cy="125" r="125" fill="#0B1B2B"/>
<path d="M100.469 165.586C99.6946 165.303 98.8745 165.185 98.0565 165.239C97.2385 165.293 96.4389 165.518 95.7044 165.901C94.9698 166.283 94.3151 166.816 93.7783 167.469C93.2416 168.121 92.8336 168.879 92.5781 169.699C87.4219 185.903 70.7813 190.92 61.1719 192.483C62.6563 182.366 67.4219 164.846 82.8125 159.417C83.6552 159.202 84.4463 158.805 85.1353 158.251C85.8243 157.697 86.3963 156.997 86.8148 156.198C87.2333 155.398 87.4893 154.516 87.5663 153.607C87.6434 152.697 87.5399 151.781 87.2625 150.916C86.985 150.051 86.5396 149.256 85.9547 148.583C85.3697 147.909 84.658 147.37 83.8647 147.002C83.0715 146.633 82.214 146.442 81.3469 146.441C80.4798 146.441 79.6221 146.63 78.8281 146.997C66.0156 151.438 56.6406 162.132 51.6406 177.842C49.4252 184.909 48.2142 192.282 48.0469 199.722C48.0469 201.467 48.7054 203.141 49.8775 204.375C51.0496 205.609 52.6393 206.302 54.2969 206.302C61.3632 206.126 68.366 204.851 75.0781 202.518C90 197.254 100.156 187.384 104.375 173.894C104.644 173.079 104.756 172.215 104.705 171.354C104.654 170.493 104.44 169.651 104.076 168.878C103.713 168.104 103.206 167.415 102.587 166.85C101.968 166.285 101.248 165.855 100.469 165.586Z" fill="#3294F8"/>
<path d="M203.42 54.2251C203.054 51.438 201.833 48.8531 199.943 46.8635C198.054 44.874 195.599 43.5886 192.951 43.203C184.123 41.8047 161.233 41.1466 138.889 64.6714L131.858 71.992H83.9671C80.6575 72.0157 77.4884 73.4035 75.139 75.8579L49.9046 102.508C48.3045 104.184 47.1681 106.287 46.6175 108.591C46.067 110.895 46.123 113.314 46.7796 115.587C47.4311 117.876 48.6625 119.936 50.3417 121.545C52.0209 123.153 54.0844 124.25 56.3109 124.717L87.1702 131.215L119.826 165.597L125.998 198.088C126.442 200.432 127.484 202.604 129.011 204.372C130.539 206.14 132.496 207.437 134.67 208.123C135.832 208.514 137.045 208.709 138.264 208.698C139.907 208.714 141.536 208.379 143.053 207.715C144.57 207.051 145.944 206.07 147.092 204.833L172.405 178.264C174.736 175.791 176.054 172.454 176.076 168.97V118.548L183.03 111.145C205.373 87.6203 204.748 63.5198 203.42 54.2251ZM83.9671 85.1527H119.358L88.1859 117.972L58.7327 111.803L83.9671 85.1527ZM163.576 168.97L138.264 195.538L132.405 164.528L163.576 131.709V168.97Z" fill="#3294F8"/>
</svg>
