<svg width="1096" height="539" viewBox="0 0 1096 539" fill="none" xmlns="http://www.w3.org/2000/svg">
<g filter="url(#filter0_d_1026_2)">
<path d="M187.473 262.767C189.466 265.757 190.264 268.448 189.865 270.84C189.666 273.431 188.669 275.524 186.875 277.119C185.28 278.913 183.287 280.009 180.895 280.408C178.503 281.006 176.011 280.707 173.42 279.511C171.028 278.514 168.935 276.521 167.141 273.531L147.706 242.734C144.517 237.153 140.131 232.867 134.55 229.877C128.969 227.086 122.291 225.691 114.517 225.691L134.849 217.02C144.218 217.02 151.593 218.714 156.975 222.103C162.556 225.292 168.038 231.272 173.42 240.043L187.473 262.767ZM114.517 225.691C94.9823 225.691 77.9393 221.306 63.388 212.535C49.036 203.565 37.8733 191.007 29.9 174.861C22.126 158.715 18.239 139.579 18.239 117.453C18.239 100.709 20.4317 85.759 24.817 72.603C29.4017 59.2477 35.88 47.9853 44.252 38.816C52.624 29.4473 62.6903 22.2713 74.451 17.288C86.411 12.1053 99.7663 9.51399 114.517 9.51399C134.45 9.51399 151.593 13.8993 165.945 22.67C180.496 31.4407 191.659 43.899 199.433 60.045C207.406 75.9917 211.393 95.028 211.393 117.154C211.393 133.898 209.101 148.948 204.516 162.303C199.931 175.658 193.453 187.02 185.081 196.389C176.709 205.758 166.543 213.033 154.583 218.216C142.822 223.199 129.467 225.691 114.517 225.691ZM114.517 203.864C129.666 203.864 142.424 200.475 152.789 193.698C163.354 186.921 171.427 177.054 177.008 164.097C182.589 151.14 185.38 135.592 185.38 117.453C185.38 90.1443 179.201 69.015 166.842 54.065C154.683 38.9157 137.241 31.341 114.517 31.341C99.7663 31.341 87.1087 34.7297 76.544 41.507C66.1787 48.2843 58.2053 58.1513 52.624 71.108C47.0427 83.8653 44.252 99.3137 44.252 117.453C44.252 144.562 50.4313 165.791 62.79 181.14C75.1487 196.289 92.391 203.864 114.517 203.864ZM303.366 225.691C291.605 225.691 281.838 223.598 274.064 219.412C266.489 215.027 260.709 208.548 256.722 199.977C252.935 191.406 251.041 180.741 251.041 167.984V87.852C251.041 83.666 252.038 80.5763 254.031 78.583C256.224 76.5897 259.214 75.593 263.001 75.593C266.988 75.593 269.978 76.5897 271.971 78.583C274.164 80.5763 275.26 83.666 275.26 87.852V167.685C275.26 180.442 277.851 190.01 283.034 196.389C288.416 202.568 296.788 205.658 308.15 205.658C320.509 205.658 330.575 201.472 338.349 193.1C346.123 184.728 350.01 173.765 350.01 160.21V87.852C350.01 83.666 351.007 80.5763 353 78.583C355.193 76.5897 358.282 75.593 362.269 75.593C366.056 75.593 368.947 76.5897 370.94 78.583C373.133 80.5763 374.229 83.666 374.229 87.852V212.535C374.229 220.907 370.342 225.093 362.568 225.093C358.781 225.093 355.791 223.997 353.598 221.804C351.605 219.611 350.608 216.522 350.608 212.535V185.326L354.495 189.512C350.508 201.273 343.93 210.243 334.761 216.422C325.791 222.601 315.326 225.691 303.366 225.691ZM431.501 224.495C427.515 224.495 424.525 223.399 422.531 221.206C420.538 218.814 419.541 215.525 419.541 211.339V89.048C419.541 84.862 420.538 81.6727 422.531 79.48C424.525 77.2873 427.515 76.191 431.501 76.191C435.289 76.191 438.279 77.2873 440.471 79.48C442.664 81.6727 443.76 84.862 443.76 89.048V211.339C443.76 215.525 442.664 218.814 440.471 221.206C438.478 223.399 435.488 224.495 431.501 224.495ZM431.501 42.703C426.518 42.703 422.631 41.4073 419.84 38.816C417.05 36.0253 415.654 32.3377 415.654 27.753C415.654 22.969 417.05 19.381 419.84 16.989C422.631 14.3977 426.518 13.102 431.501 13.102C436.684 13.102 440.571 14.3977 443.162 16.989C445.953 19.381 447.348 22.969 447.348 27.753C447.348 32.3377 445.953 36.0253 443.162 38.816C440.571 41.4073 436.684 42.703 431.501 42.703ZM550.63 225.691C536.078 225.691 523.52 222.502 512.956 216.123C502.391 209.744 494.218 200.874 488.438 189.512C482.856 177.951 480.066 164.595 480.066 149.446C480.066 137.885 481.66 127.519 484.85 118.35C488.039 109.181 492.723 101.407 498.903 95.028C505.082 88.45 512.457 83.4667 521.029 80.078C529.799 76.6893 539.666 74.995 550.63 74.995C557.806 74.995 565.281 76.0913 573.055 78.284C580.829 80.4767 587.905 84.264 594.284 89.646C596.277 91.0413 597.573 92.7357 598.171 94.729C598.769 96.7223 598.769 98.7157 598.171 100.709C597.573 102.503 596.576 104.098 595.181 105.493C593.785 106.689 591.991 107.387 589.799 107.586C587.805 107.785 585.712 107.088 583.52 105.493C578.337 101.506 573.055 98.7157 567.673 97.121C562.291 95.5263 557.108 94.729 552.125 94.729C544.351 94.729 537.573 96.0247 531.793 98.616C526.012 101.008 521.128 104.496 517.142 109.081C513.155 113.666 510.065 119.347 507.873 126.124C505.879 132.901 504.883 140.775 504.883 149.745C504.883 167.087 508.969 180.841 517.142 191.007C525.314 200.974 536.975 205.957 552.125 205.957C557.108 205.957 562.191 205.16 567.374 203.565C572.756 201.97 578.138 199.18 583.52 195.193C585.712 193.598 587.805 192.901 589.799 193.1C591.792 193.299 593.486 194.097 594.882 195.492C596.277 196.688 597.174 198.283 597.573 200.276C598.171 202.269 598.171 204.263 597.573 206.256C596.975 208.05 595.679 209.645 593.686 211.04C587.307 216.223 580.33 220.01 572.756 222.402C565.181 224.595 557.806 225.691 550.63 225.691ZM639.4 225.093C635.413 225.093 632.423 223.997 630.43 221.804C628.436 219.611 627.44 216.522 627.44 212.535V22.371C627.44 18.3843 628.436 15.3943 630.43 13.401C632.423 11.2083 635.413 10.112 639.4 10.112C643.187 10.112 646.177 11.2083 648.37 13.401C650.562 15.3943 651.659 18.3843 651.659 22.371V142.27H652.257L713.552 83.666C716.342 81.0747 718.734 79.0813 720.728 77.686C722.92 76.2907 725.811 75.593 729.399 75.593C732.588 75.593 735.08 76.49 736.874 78.284C738.668 79.8787 739.465 81.9717 739.266 84.563C739.266 86.955 738.07 89.5463 735.678 92.337L670.496 154.23V141.074L741.359 207.751C744.149 210.542 745.545 213.233 745.545 215.824C745.545 218.415 744.548 220.608 742.555 222.402C740.761 224.196 738.369 225.093 735.379 225.093C731.791 225.093 728.9 224.395 726.708 223C724.515 221.405 721.824 219.113 718.635 216.123L652.257 154.828H651.659V212.535C651.659 220.907 647.572 225.093 639.4 225.093ZM398.343 475.093C394.555 475.093 391.565 473.997 389.373 471.804C387.18 469.412 386.084 466.223 386.084 462.236V283.434H318.809C315.221 283.434 312.43 282.437 310.437 280.444C308.443 278.451 307.447 275.859 307.447 272.67C307.447 269.281 308.443 266.69 310.437 264.896C312.43 263.102 315.221 262.205 318.809 262.205H478.176C481.764 262.205 484.554 263.102 486.548 264.896C488.541 266.69 489.538 269.281 489.538 272.67C489.538 276.059 488.541 278.75 486.548 280.743C484.554 282.537 481.764 283.434 478.176 283.434H410.901V462.236C410.901 466.223 409.804 469.412 407.612 471.804C405.618 473.997 402.529 475.093 398.343 475.093ZM530.487 474.495C526.5 474.495 523.51 473.399 521.517 471.206C519.523 468.814 518.527 465.525 518.527 461.339V339.048C518.527 334.862 519.523 331.673 521.517 329.48C523.51 327.287 526.5 326.191 530.487 326.191C534.274 326.191 537.264 327.287 539.457 329.48C541.649 331.673 542.746 334.862 542.746 339.048V461.339C542.746 465.525 541.649 468.814 539.457 471.206C537.463 473.399 534.473 474.495 530.487 474.495ZM530.487 292.703C525.503 292.703 521.616 291.407 518.826 288.816C516.035 286.025 514.64 282.338 514.64 277.753C514.64 272.969 516.035 269.381 518.826 266.989C521.616 264.398 525.503 263.102 530.487 263.102C535.669 263.102 539.556 264.398 542.148 266.989C544.938 269.381 546.334 272.969 546.334 277.753C546.334 282.338 544.938 286.025 542.148 288.816C539.556 291.407 535.669 292.703 530.487 292.703ZM599.981 528.913C595.994 528.913 593.004 527.817 591.011 525.624C589.018 523.631 588.021 520.641 588.021 516.654V337.852C588.021 333.865 589.018 330.875 591.011 328.882C593.004 326.689 595.895 325.593 599.682 325.593C603.669 325.593 606.659 326.689 608.652 328.882C610.845 330.875 611.941 333.865 611.941 337.852V366.257L608.652 362.071C611.841 350.709 618.12 341.739 627.489 335.161C637.057 328.384 648.419 324.995 661.575 324.995C674.532 324.995 685.794 328.085 695.362 334.264C705.129 340.244 712.604 348.915 717.787 360.277C723.169 371.44 725.86 384.795 725.86 400.343C725.86 415.692 723.169 429.047 717.787 440.409C712.604 451.572 705.229 460.243 695.661 466.422C686.093 472.601 674.731 475.691 661.575 475.691C648.419 475.691 637.157 472.402 627.788 465.824C618.419 459.047 612.041 450.077 608.652 438.914H612.24V516.654C612.24 520.641 611.144 523.631 608.951 525.624C606.758 527.817 603.768 528.913 599.981 528.913ZM656.492 456.256C665.661 456.256 673.535 454.063 680.113 449.678C686.89 445.293 692.073 438.914 695.661 430.542C699.448 422.17 701.342 412.104 701.342 400.343C701.342 382.204 697.256 368.35 689.083 358.782C681.11 349.214 670.246 344.43 656.492 344.43C647.522 344.43 639.648 346.623 632.871 351.008C626.094 355.194 620.811 361.473 617.024 369.845C613.436 378.018 611.642 388.184 611.642 400.343C611.642 418.283 615.728 432.137 623.901 441.904C632.074 451.472 642.937 456.256 656.492 456.256ZM811.376 475.691C802.406 475.691 793.337 474.595 784.167 472.402C775.197 470.209 766.825 466.422 759.051 461.04C757.058 459.645 755.663 458.05 754.865 456.256C754.068 454.263 753.769 452.369 753.968 450.575C754.367 448.582 755.164 446.887 756.36 445.492C757.756 444.097 759.35 443.299 761.144 443.1C763.138 442.701 765.33 443.1 767.722 444.296C775.496 449.08 782.971 452.469 790.147 454.462C797.523 456.256 804.798 457.153 811.974 457.153C823.336 457.153 831.908 455.06 837.688 450.874C843.469 446.688 846.359 441.007 846.359 433.831C846.359 428.25 844.466 423.864 840.678 420.675C836.891 417.286 830.911 414.695 822.738 412.901L795.529 406.921C782.971 404.33 773.603 399.845 767.423 393.466C761.443 387.087 758.453 378.815 758.453 368.649C758.453 359.679 760.746 352.005 765.33 345.626C770.114 339.048 776.792 333.965 785.363 330.377C793.935 326.789 803.901 324.995 815.263 324.995C824.034 324.995 832.306 326.191 840.08 328.583C848.054 330.776 855.23 334.364 861.608 339.347C863.602 340.742 864.897 342.437 865.495 344.43C866.293 346.224 866.392 348.118 865.794 350.111C865.396 351.905 864.499 353.5 863.103 354.895C861.708 356.091 860.014 356.789 858.02 356.988C856.027 357.187 853.934 356.589 851.741 355.194C845.761 351.207 839.682 348.317 833.502 346.523C827.323 344.53 821.243 343.533 815.263 343.533C804.101 343.533 795.629 345.726 789.848 350.111C784.068 354.496 781.177 360.277 781.177 367.453C781.177 373.034 782.971 377.619 786.559 381.207C790.147 384.795 795.729 387.386 803.303 388.981L830.512 394.662C843.469 397.453 853.137 401.938 859.515 408.117C866.093 414.097 869.382 422.27 869.382 432.635C869.382 445.791 864.1 456.256 853.535 464.03C842.971 471.804 828.918 475.691 811.376 475.691Z" fill="#3294F8"/>
<path d="M161.469 414.586C160.695 414.303 159.875 414.185 159.057 414.239C158.239 414.293 157.439 414.518 156.704 414.901C155.97 415.283 155.315 415.816 154.778 416.469C154.242 417.121 153.834 417.879 153.578 418.699C148.422 434.903 131.781 439.92 122.172 441.483C123.656 431.366 128.422 413.846 143.813 408.417C144.655 408.202 145.446 407.805 146.135 407.251C146.824 406.697 147.396 405.997 147.815 405.198C148.233 404.398 148.489 403.516 148.566 402.607C148.643 401.697 148.54 400.781 148.262 399.916C147.985 399.051 147.54 398.256 146.955 397.583C146.37 396.909 145.658 396.37 144.865 396.002C144.071 395.633 143.214 395.442 142.347 395.441C141.48 395.441 140.622 395.63 139.828 395.997C127.016 400.438 117.641 411.132 112.641 426.842C110.425 433.909 109.214 441.282 109.047 448.722C109.047 450.467 109.705 452.141 110.877 453.375C112.05 454.609 113.639 455.302 115.297 455.302C122.363 455.126 129.366 453.851 136.078 451.518C151 446.254 161.156 436.384 165.375 422.894C165.644 422.079 165.756 421.215 165.705 420.354C165.654 419.493 165.44 418.651 165.076 417.878C164.713 417.104 164.206 416.415 163.587 415.85C162.968 415.285 162.248 414.855 161.469 414.586Z" fill="#3294F8"/>
<path d="M264.42 303.225C264.054 300.438 262.833 297.853 260.943 295.864C259.054 293.874 256.599 292.589 253.951 292.203C245.123 290.805 222.233 290.147 199.889 313.671L192.858 320.992H144.967C141.657 321.016 138.488 322.404 136.139 324.858L110.905 351.508C109.304 353.184 108.168 355.287 107.618 357.591C107.067 359.895 107.123 362.314 107.78 364.587C108.431 366.876 109.662 368.936 111.342 370.545C113.021 372.153 115.084 373.25 117.311 373.717L148.17 380.215L180.826 414.597L186.998 447.088C187.442 449.432 188.484 451.604 190.011 453.372C191.539 455.14 193.496 456.437 195.67 457.123C196.832 457.514 198.045 457.709 199.264 457.698C200.907 457.714 202.536 457.379 204.053 456.715C205.57 456.051 206.944 455.07 208.092 453.833L233.405 427.264C235.736 424.791 237.054 421.454 237.076 417.97V367.548L244.03 360.145C266.373 336.62 265.748 312.52 264.42 303.225ZM144.967 334.153H180.358L149.186 366.972L119.733 360.803L144.967 334.153ZM224.576 417.97L199.264 444.538L193.405 413.528L224.576 380.709V417.97Z" fill="#3294F8"/>
</g>
<defs>
<filter id="filter0_d_1026_2" x="14.2383" y="9.51562" width="859.145" height="527.398" filterUnits="userSpaceOnUse" color-interpolation-filters="sRGB">
<feFlood flood-opacity="0" result="BackgroundImageFix"/>
<feColorMatrix in="SourceAlpha" type="matrix" values="0 0 0 0 0 0 0 0 0 0 0 0 0 0 0 0 0 0 127 0" result="hardAlpha"/>
<feOffset dy="4"/>
<feGaussianBlur stdDeviation="2"/>
<feComposite in2="hardAlpha" operator="out"/>
<feColorMatrix type="matrix" values="0 0 0 0 0 0 0 0 0 0 0 0 0 0 0 0 0 0 0.25 0"/>
<feBlend mode="normal" in2="BackgroundImageFix" result="effect1_dropShadow_1026_2"/>
<feBlend mode="normal" in="SourceGraphic" in2="effect1_dropShadow_1026_2" result="shape"/>
</filter>
</defs>
</svg>
