<svg width="1096" height="546" viewBox="0 0 1096 546" fill="none" xmlns="http://www.w3.org/2000/svg">
<path d="M97.474 290.697V227.01H139.932V290.697H97.474ZM118.703 233.887C101.959 233.887 86.8097 231.096 73.255 225.515C59.8997 219.734 48.438 211.861 38.87 201.894C29.302 191.927 21.9267 180.366 16.744 167.21C11.5613 154.054 8.97 140.001 8.97 125.051C8.97 110.101 11.5613 96.1477 16.744 83.191C21.9267 70.035 29.302 58.4737 38.87 48.507C48.438 38.5403 59.8997 30.7663 73.255 25.185C86.8097 19.6036 101.959 16.813 118.703 16.813C135.447 16.813 150.497 19.6036 163.852 25.185C177.407 30.7663 188.968 38.5403 198.536 48.507C208.104 58.4737 215.479 70.035 220.662 83.191C225.845 96.1477 228.436 110.101 228.436 125.051C228.436 140.001 225.845 154.054 220.662 167.21C215.479 180.366 208.104 191.927 198.536 201.894C188.968 211.861 177.407 219.734 163.852 225.515C150.497 231.096 135.447 233.887 118.703 233.887ZM118.703 195.914C128.271 195.914 137.141 194.22 145.314 190.831C153.487 187.243 160.563 182.26 166.543 175.881C172.722 169.303 177.407 161.728 180.596 153.157C183.985 144.586 185.679 135.217 185.679 125.051C185.679 114.885 183.985 105.516 180.596 96.945C177.407 88.3737 172.722 80.8987 166.543 74.52C160.563 68.1413 153.487 63.2577 145.314 59.869C137.141 56.281 128.271 54.487 118.703 54.487C109.135 54.487 100.265 56.281 92.092 59.869C83.9193 63.2577 76.7433 68.1413 70.564 74.52C64.584 80.8987 59.8997 88.3737 56.511 96.945C53.3217 105.516 51.727 114.885 51.727 125.051C51.727 135.217 53.3217 144.586 56.511 153.157C59.8997 161.728 64.584 169.303 70.564 175.881C76.7433 182.26 83.9193 187.243 92.092 190.831C100.265 194.22 109.135 195.914 118.703 195.914ZM331.276 233.588C315.728 233.588 302.372 230.498 291.21 224.319C280.047 218.14 271.476 209.867 265.496 199.502C259.715 189.137 256.825 177.675 256.825 165.117V77.51H297.788V165.117C297.788 171.296 299.283 176.977 302.273 182.16C305.263 187.143 309.249 191.13 314.233 194.12C319.415 197.11 325.096 198.605 331.276 198.605C337.455 198.605 343.036 197.11 348.02 194.12C353.202 191.13 357.289 187.143 360.279 182.16C363.269 176.977 364.764 171.296 364.764 165.117V77.51H405.727V165.117C405.727 177.675 402.737 189.137 396.757 199.502C390.976 209.867 382.504 218.14 371.342 224.319C360.378 230.498 347.023 233.588 331.276 233.588ZM444.576 230V77.51H485.838V230H444.576ZM465.207 59.271C458.23 59.271 452.15 56.7793 446.968 51.796C441.984 46.6133 439.493 40.5337 439.493 33.557C439.493 26.5803 441.984 20.6003 446.968 15.617C452.15 10.4343 458.23 7.84299 465.207 7.84299C472.183 7.84299 478.163 10.4343 483.147 15.617C488.329 20.6003 490.921 26.5803 490.921 33.557C490.921 40.5337 488.329 46.6133 483.147 51.796C478.163 56.7793 472.183 59.271 465.207 59.271ZM597.544 230C581.797 230 567.744 226.611 555.385 219.834C543.027 213.057 533.259 203.987 526.083 192.625C518.907 181.064 515.319 168.107 515.319 153.755C515.319 139.403 518.907 126.546 526.083 115.184C533.259 103.623 543.027 94.4533 555.385 87.676C567.744 80.8987 581.797 77.51 597.544 77.51H616.68V112.493H597.544C589.172 112.493 581.897 114.287 575.717 117.875C569.737 121.463 565.053 126.446 561.664 132.825C558.475 139.004 556.88 145.981 556.88 153.755C556.88 161.529 558.475 168.605 561.664 174.984C565.053 181.163 569.737 186.047 575.717 189.635C581.897 193.223 589.172 195.017 597.544 195.017H616.68V230H597.544ZM645.174 230V11.73H686.137V135.815H710.356L747.133 77.51H791.983L750.123 142.094C763.08 147.476 773.146 155.748 780.322 166.911C787.498 178.074 791.086 190.532 791.086 204.286V230H750.123V204.286C750.123 198.107 748.529 192.525 745.339 187.542C742.349 182.359 738.363 178.273 733.379 175.283C728.396 172.293 722.815 170.798 716.635 170.798H686.137V230H645.174Z" fill="#C4C4CC"/>
<path d="M441.502 480C429.143 480 418.279 477.209 408.911 471.628C399.542 465.847 392.266 458.273 387.084 448.904C381.901 439.336 379.31 428.871 379.31 417.509V308.374H321.005V270.7H480.372V308.374H422.067V422.592C422.067 427.974 423.96 432.658 427.748 436.645C431.535 440.432 436.12 442.326 441.502 442.326H456.452V480H441.502ZM489.542 480V327.51H530.804V480H489.542ZM510.173 309.271C503.197 309.271 497.117 306.779 491.934 301.796C486.951 296.613 484.459 290.534 484.459 283.557C484.459 276.58 486.951 270.6 491.934 265.617C497.117 260.434 503.197 257.843 510.173 257.843C517.15 257.843 523.13 260.434 528.113 265.617C533.296 270.6 535.887 276.58 535.887 283.557C535.887 290.534 533.296 296.613 528.113 301.796C523.13 306.779 517.15 309.271 510.173 309.271ZM648.192 323.922C661.149 323.922 672.611 326.015 682.577 330.201C692.544 334.188 700.916 339.968 707.693 347.543C714.471 354.918 719.653 363.689 723.241 373.855C726.829 383.822 728.623 394.785 728.623 406.745C728.623 421.695 725.534 434.951 719.354 446.512C713.374 458.073 704.903 467.143 693.939 473.721C682.976 480.299 670.019 483.588 655.069 483.588C648.691 483.588 642.511 482.691 636.531 480.897C630.751 479.103 625.468 476.512 620.684 473.123C616.1 469.734 612.213 465.748 609.023 461.163H608.724V545.78H567.761V406.745C567.761 389.802 571.05 375.151 577.628 362.792C584.206 350.433 593.475 340.865 605.435 334.088C617.595 327.311 631.847 323.922 648.192 323.922ZM648.192 358.905C640.219 358.905 633.242 360.898 627.262 364.885C621.482 368.872 616.997 374.254 613.807 381.031C610.817 387.808 609.322 395.383 609.322 403.755C609.322 412.127 610.817 419.702 613.807 426.479C616.997 433.256 621.482 438.638 627.262 442.625C633.242 446.612 640.219 448.605 648.192 448.605C656.365 448.605 663.342 446.612 669.122 442.625C674.903 438.638 679.288 433.256 682.278 426.479C685.468 419.702 687.062 412.127 687.062 403.755C687.062 395.383 685.468 387.808 682.278 381.031C679.288 374.254 674.903 368.872 669.122 364.885C663.342 360.898 656.365 358.905 648.192 358.905ZM759.065 480V445.017H833.516C835.908 445.017 838.001 444.519 839.795 443.522C841.789 442.525 843.284 441.13 844.28 439.336C845.476 437.542 846.074 435.549 846.074 433.356C846.074 430.964 845.476 428.871 844.28 427.077C843.284 425.283 841.789 423.888 839.795 422.891C838.001 421.695 835.908 421.097 833.516 421.097H804.812C795.045 421.097 786.175 419.602 778.201 416.612C770.427 413.423 764.148 408.439 759.364 401.662C754.78 394.685 752.487 385.616 752.487 374.453C752.487 365.882 754.58 358.108 758.766 351.131C763.152 343.955 768.932 338.274 776.108 334.088C783.484 329.703 791.557 327.51 800.327 327.51H871.788V362.493H804.214C801.224 362.493 798.533 363.49 796.141 365.483C793.949 367.476 792.852 370.068 792.852 373.257C792.852 376.446 793.949 379.137 796.141 381.33C798.334 383.323 801.025 384.32 804.214 384.32H832.918C843.882 384.32 853.35 386.014 861.323 389.403C869.297 392.592 875.476 397.675 879.861 404.652C884.247 411.629 886.439 420.798 886.439 432.16C886.439 440.931 884.247 449.004 879.861 456.379C875.476 463.555 869.596 469.336 862.22 473.721C854.845 477.907 846.573 480 837.403 480H759.065Z" fill="#F7A407"/>
<path d="M161.469 414.586C160.695 414.303 159.875 414.185 159.057 414.239C158.239 414.293 157.439 414.518 156.704 414.901C155.97 415.283 155.315 415.816 154.778 416.469C154.242 417.121 153.834 417.879 153.578 418.699C148.422 434.903 131.781 439.92 122.172 441.483C123.656 431.366 128.422 413.846 143.813 408.417C144.655 408.202 145.446 407.805 146.135 407.251C146.824 406.697 147.396 405.997 147.815 405.198C148.233 404.398 148.489 403.516 148.566 402.607C148.643 401.697 148.54 400.781 148.262 399.916C147.985 399.051 147.54 398.256 146.955 397.583C146.37 396.909 145.658 396.37 144.865 396.002C144.071 395.633 143.214 395.442 142.347 395.441C141.48 395.441 140.622 395.63 139.828 395.997C127.016 400.438 117.641 411.132 112.641 426.842C110.425 433.909 109.214 441.282 109.047 448.722C109.047 450.467 109.705 452.141 110.877 453.375C112.05 454.609 113.639 455.302 115.297 455.302C122.363 455.126 129.366 453.851 136.078 451.518C151 446.254 161.156 436.384 165.375 422.894C165.644 422.079 165.756 421.215 165.705 420.354C165.654 419.493 165.44 418.651 165.076 417.878C164.713 417.104 164.206 416.415 163.587 415.85C162.968 415.285 162.248 414.855 161.469 414.586Z" fill="#C4C4CC"/>
<path d="M264.42 303.225C264.054 300.438 262.833 297.853 260.943 295.864C259.054 293.874 256.599 292.589 253.951 292.203C245.123 290.805 222.233 290.147 199.889 313.671L192.858 320.992H144.967C141.657 321.016 138.488 322.404 136.139 324.858L110.905 351.508C109.304 353.184 108.168 355.287 107.618 357.591C107.067 359.895 107.123 362.314 107.78 364.587C108.431 366.876 109.662 368.936 111.342 370.545C113.021 372.153 115.084 373.25 117.311 373.717L148.17 380.215L180.826 414.597L186.998 447.088C187.442 449.432 188.484 451.604 190.011 453.372C191.539 455.14 193.496 456.437 195.67 457.123C196.832 457.514 198.045 457.709 199.264 457.698C200.907 457.714 202.536 457.379 204.053 456.715C205.57 456.051 206.944 455.07 208.092 453.833L233.405 427.264C235.736 424.791 237.054 421.454 237.076 417.97V367.548L244.03 360.145C266.373 336.62 265.748 312.52 264.42 303.225ZM144.967 334.153H180.358L149.186 366.972L119.733 360.803L144.967 334.153ZM224.576 417.97L199.264 444.538L193.405 413.528L224.576 380.709V417.97Z" fill="#C4C4CC"/>
</svg>
